<?xml version="1.0" encoding="UTF-8"?><svg id="uuid-df583b9a-d6a0-4887-8cbd-35cd7bc2b018" xmlns="http://www.w3.org/2000/svg" viewBox="0 0 197.58 19.91"><g id="uuid-7ed3246e-d1e6-469b-9d34-184ba4c3e2e3"><path d="M144.89,6.33c2.72,0,4.28,1.98,4.28,4.53,0,.25-.08.91-.08.91h-6.59c.16,1.73,1.4,2.55,2.88,2.55,1.56,0,2.72-1.07,2.72-1.07l.99,1.65s-1.48,1.48-3.87,1.48c-3.21,0-5.1-2.31-5.1-5.02-.16-2.96,1.89-5.02,4.77-5.02ZM146.62,10.11c0-1.15-.82-1.89-1.81-1.89-1.23,0-2.06.74-2.31,1.89h4.12Z" fill="#fff" stroke-width="0"/><path d="M54.83,6.33c2.72,0,4.28,1.98,4.28,4.53,0,.25-.08.91-.08.91h-6.59c.16,1.73,1.4,2.55,2.88,2.55,1.56,0,2.72-1.07,2.72-1.07l.99,1.65s-1.48,1.48-3.87,1.48c-3.21,0-5.1-2.31-5.1-5.02-.08-2.96,1.89-5.02,4.77-5.02ZM56.64,10.11c0-1.15-.82-1.89-1.81-1.89-1.23,0-2.06.74-2.31,1.89h4.12Z" fill="#fff" stroke-width="0"/><path d="M82.41,6.33c2.72,0,4.28,1.98,4.28,4.53,0,.25-.08.91-.08.91h-6.59c.16,1.73,1.4,2.55,2.88,2.55,1.56,0,2.72-1.07,2.72-1.07l.99,1.65s-1.48,1.48-3.87,1.48c-3.21,0-5.1-2.31-5.1-5.02-.08-2.96,1.89-5.02,4.77-5.02ZM84.22,10.11c0-1.15-.82-1.89-1.81-1.89-1.23,0-2.06.74-2.31,1.89h4.12Z" fill="#fff" stroke-width="0"/><path d="M120.44,9.04c0-.25-.16-.41-.41-.41h-.74v-2.06h2.22c.82,0,1.23.41,1.23,1.07v.66c.41-.82,1.48-1.98,3.38-1.98,2.14,0,3.38,1.07,3.38,3.62v3.7c0,.25.16.41.41.41h.74v1.98h-2.31c-.91,0-1.23-.41-1.23-1.23v-4.36c0-1.15-.33-1.98-1.48-1.98-1.23,0-2.22.82-2.55,1.98-.16.41-.16.82-.16,1.32v4.36h-2.39v-7.08h-.08Z" fill="#fff" stroke-width="0"/><path d="M113.44,6.33c2.96,0,5.27,2.06,5.27,5.02s-2.31,5.02-5.27,5.02-5.27-2.06-5.27-5.02,2.39-5.02,5.27-5.02ZM113.44,14.4c1.56,0,2.88-1.23,2.88-2.96s-1.32-2.96-2.88-2.96-2.8,1.23-2.8,2.96,1.23,2.96,2.8,2.96Z" fill="#fff" stroke-width="0"/><path d="M107.11,11.35c0,2.96-1.65,5.02-4.28,5.02-2.06,0-2.88-1.32-2.88-1.32v4.86h-2.39v-10.87c0-.25-.16-.41-.41-.41h-.74v-2.06h2.14c.91,0,1.23.33,1.23.82v.33s.82-1.4,2.96-1.4c2.55,0,4.36,1.98,4.36,5.02ZM102.33,14.4c1.4,0,2.39-1.15,2.39-2.96s-1.07-2.96-2.39-2.96c-1.56,0-2.39,1.48-2.39,2.96-.08,2.06,1.15,2.96,2.39,2.96Z" fill="#fff" stroke-width="0"/><path d="M88.99,13.08s1.23,1.4,2.88,1.4c.74,0,1.32-.33,1.32-.91,0-1.32-5.02-1.32-5.02-4.45,0-1.89,1.73-2.8,3.7-2.8,1.32,0,3.38.41,3.38,1.98v.99h-2.14v-.49c0-.41-.66-.66-1.23-.66-.82,0-1.4.33-1.4.82,0,1.48,5.1,1.23,5.1,4.36,0,1.81-1.56,2.96-3.7,2.96-2.63,0-3.95-1.73-3.95-1.73l1.07-1.48Z" fill="#fff" stroke-width="0"/><path d="M132.63,13.08s1.23,1.4,2.88,1.4c.74,0,1.32-.33,1.32-.91,0-1.32-5.02-1.32-5.02-4.45,0-1.89,1.73-2.8,3.7-2.8,1.32,0,3.38.41,3.38,1.98v.99h-2.22v-.49c0-.41-.66-.66-1.23-.66-.82,0-1.4.33-1.4.82,0,1.48,5.1,1.23,5.1,4.36,0,1.81-1.56,2.96-3.7,2.96-2.63,0-3.95-1.73-3.95-1.73l1.15-1.48Z" fill="#fff" stroke-width="0"/><path d="M65.37,14.15c-.66,0-1.89-.25-1.89-1.81v-3.87h2.14v-.91c0-.74-.33-.99-.99-.99h-1.15v-2.63h-2.31v2.63h-1.32v1.89h1.23v4.2c0,3.21,2.63,3.62,3.95,3.62.41,0,.74-.08.74-.08v-2.06h-.41Z" fill="#fff" stroke-width="0"/><path d="M42.97,2.62c3.29,0,4.86,1.73,4.86,1.73l-1.4,1.73s-1.4-1.15-3.46-1.15c-2.31,0-4.28,1.81-4.28,4.53,0,2.88,1.98,4.69,4.36,4.69,2.14,0,3.38-1.4,3.38-1.4v-.99c0-.25-.16-.41-.41-.41h-.82v-2.06h2.14c.91,0,1.32.41,1.32,1.23v5.68h-2.14v-1.23s-1.4,1.4-3.95,1.4c-3.46,0-6.5-2.63-6.5-7,.16-3.79,3.05-6.75,6.92-6.75Z" fill="#fff" stroke-width="0"/><path d="M67.18,2.79h4.77c2.47,0,4.12,1.48,4.12,4.03,0,2.39-1.65,3.38-2.22,3.54s.41.16.66.66l1.32,2.55c.16.41.49.41.91.41h.25v2.06h-1.32c-.99,0-1.4-.16-1.89-.99l-1.73-3.38c-.25-.49-.58-.66-1.23-.66h-1.23v4.94h-2.47l.08-13.17ZM71.54,9.04c1.23,0,1.98-.74,1.98-2.14,0-1.23-.74-1.98-1.89-1.98h-1.98v4.12h1.89Z" fill="#fff" stroke-width="0"/><path d="M163.09,4.85l3.54,8.4,3.54-8.4h1.07v9.55h-.82v-4.12l.08-4.28-3.54,8.4h-.66l-3.54-8.4.08,4.2v4.2h-.82V4.85h1.07Z" fill="#fff" stroke-width="0"/><path d="M180.13,11.76h-4.28l-.99,2.63h-.82l3.62-9.55h.74l3.62,9.55h-.82l-1.07-2.63ZM176.09,11.02h3.79l-1.89-5.19-1.89,5.19Z" fill="#fff" stroke-width="0"/><path d="M188.11,8.88l2.72-4.03h.99l-3.13,4.69,3.21,4.86h-.99l-2.8-4.12-2.8,4.12h-.91l3.29-4.86-3.13-4.69h.99l2.55,4.03Z" fill="#fff" stroke-width="0"/><path d="M196.27.98c.45,0,.81.36.81.81v15.74c0,.45-.36.81-.81.81h-38.63c-.45,0-.81-.36-.81-.81V1.79c0-.45.36-.81.81-.81h38.63M196.27.48h-38.63c-.72,0-1.31.59-1.31,1.31v15.74c0,.72.59,1.31,1.31,1.31h38.63c.72,0,1.31-.59,1.31-1.31V1.79c0-.72-.59-1.31-1.31-1.31h0Z" fill="#fff" stroke-width="0"/><path d="M14.86,14.86c-2.75,0-5.28-.99-7.31-2.48-2.62-1.93-4.2-4.91-4.63-7.56-.03-.2-.07-.4-.09-.57-.11-.74.44-1.55,1.35-1.55h.63c.57,2.71,2.07,4.62,3.57,5.84,2.01,1.63,4.37,2.24,6.44,2.28,5.63.12,11.11-4.88,14.61-10.35,0,0,0,0,0,0-.23-.29-.59-.47-.99-.47H1.27C.57,0,0,.57,0,1.27v16.37c0,.7.57,1.27,1.27,1.27h27.18c.7,0,1.27-.57,1.27-1.27V3.61c-4.61,8.11-9.91,11.24-14.86,11.25Z" fill="#00a2ff" stroke-width="0"/><path d="M14.82,10.83c-2.08-.05-4.43-.65-6.44-2.28-1.5-1.22-3-3.14-3.57-5.84h-.63c-.91,0-1.46.81-1.35,1.55.02.17.06.37.09.57.43,2.65,2.01,5.63,4.63,7.56,2.03,1.5,4.56,2.49,7.31,2.48,4.95-.02,10.25-3.14,14.86-11.25h0V1.27c0-.3-.11-.58-.28-.8,0,0,0,0,0,0-3.5,5.47-8.98,10.47-14.61,10.35Z" fill="#fff" stroke-width="0"/></g></svg>